<svg width="12" height="13" viewBox="0 0 12 13" fill="#fff" xmlns="http://www.w3.org/2000/svg">
<path d="M11.7926 9.87889C11.7926 10.0296 11.7646 10.2263 11.7088 10.469C11.653 10.7118 11.5944 10.9029 11.5331 11.0424C11.4159 11.3214 11.0755 11.6172 10.5119 11.9297C9.9873 12.2143 9.46833 12.3566 8.95494 12.3566C8.80427 12.3566 8.65639 12.3468 8.5113 12.3273C8.36621 12.3077 8.20578 12.2729 8.02999 12.2226C7.85421 12.1724 7.72307 12.132 7.63658 12.1013C7.55008 12.0706 7.39523 12.0134 7.17201 11.9297C6.9488 11.846 6.81208 11.7957 6.76186 11.779C6.21498 11.5837 5.7267 11.3521 5.29701 11.0842C4.58831 10.6434 3.8517 10.0407 3.08719 9.27621C2.32268 8.5117 1.72001 7.77509 1.27916 7.06638C1.0113 6.6367 0.779715 6.14841 0.584403 5.60154C0.567662 5.55132 0.517439 5.4146 0.433733 5.19138C0.350028 4.96817 0.292829 4.81331 0.262137 4.72682C0.231445 4.64032 0.190988 4.50918 0.140765 4.3334C0.0905413 4.15762 0.0556641 3.99718 0.0361328 3.8521C0.0166016 3.70701 0.00683594 3.55913 0.00683594 3.40846C0.00683594 2.89506 0.149135 2.37609 0.433733 1.85154C0.746233 1.28792 1.04199 0.947517 1.32101 0.83033C1.46052 0.768946 1.65165 0.710352 1.89439 0.654549C2.13714 0.598744 2.33384 0.570843 2.48451 0.570843C2.56264 0.570843 2.62123 0.579213 2.6603 0.595955C2.76074 0.629436 2.90862 0.841491 3.10393 1.23212C3.16532 1.33814 3.24902 1.48881 3.35505 1.68412C3.46108 1.87944 3.55873 2.05661 3.64802 2.21565C3.7373 2.37469 3.8238 2.52397 3.90751 2.66348C3.92425 2.6858 3.97307 2.75556 4.05399 2.87274C4.1349 2.98993 4.19489 3.08898 4.23396 3.1699C4.27302 3.25081 4.29255 3.33033 4.29255 3.40846C4.29255 3.52006 4.21303 3.65957 4.05399 3.82698C3.89495 3.9944 3.72196 4.14785 3.53502 4.28736C3.34807 4.42687 3.17508 4.57475 3.01604 4.731C2.857 4.88725 2.77748 5.0156 2.77748 5.11605C2.77748 5.16627 2.79143 5.22905 2.81934 5.30439C2.84724 5.37972 2.87095 5.43692 2.89049 5.47598C2.91002 5.51504 2.94908 5.58201 3.00767 5.67687C3.06627 5.77174 3.09835 5.82475 3.10393 5.83591C3.52804 6.60042 4.01353 7.25612 4.56041 7.80299C5.10728 8.34987 5.76297 8.83536 6.52748 9.25947C6.53864 9.26505 6.59166 9.29713 6.68652 9.35573C6.78139 9.41432 6.84835 9.45338 6.88742 9.47292C6.92648 9.49245 6.98368 9.51616 7.05901 9.54406C7.13435 9.57197 7.19713 9.58592 7.24735 9.58592C7.3478 9.58592 7.47614 9.5064 7.63239 9.34736C7.78864 9.18832 7.93652 9.01533 8.07603 8.82838C8.21554 8.64144 8.369 8.46845 8.53641 8.30941C8.70382 8.15037 8.84333 8.07085 8.95494 8.07085C9.03306 8.07085 9.11258 8.09038 9.1935 8.12944C9.27441 8.16851 9.37347 8.22849 9.49065 8.30941C9.60784 8.39033 9.67759 8.43915 9.69992 8.45589C9.83943 8.5396 9.9887 8.6261 10.1477 8.71538C10.3068 8.80467 10.484 8.90232 10.6793 9.00835C10.8746 9.11438 11.0253 9.19808 11.1313 9.25947C11.5219 9.45478 11.734 9.60266 11.7674 9.70311C11.7842 9.74217 11.7926 9.80076 11.7926 9.87889Z" fill="white" fill-opacity="0.85"/>
</svg>
